<?xml version="1.0" standalone="no"?>
<!DOCTYPE svg PUBLIC "-//W3C//DTD SVG 20010904//EN"
 "http://www.w3.org/TR/2001/REC-SVG-20010904/DTD/svg10.dtd">
<svg version="1.0" xmlns="http://www.w3.org/2000/svg"
 width="139.000000pt" height="48.000000pt" viewBox="0 0 139.000000 48.000000"
 preserveAspectRatio="xMidYMid meet">

<g transform="translate(0.000000,48.000000) scale(0.100000,-0.100000)"
fill="#000000" stroke="none">
<path d="M327 449 c-26 -14 -52 -41 -78 -84 -22 -35 -50 -66 -62 -70 -13 -4
-17 -8 -10 -11 16 -7 -15 -69 -59 -119 -32 -37 -67 -44 -76 -16 -3 10 1 12 19
8 42 -11 70 40 33 61 -25 14 -53 3 -68 -27 -20 -38 -5 -68 42 -82 58 -17 92 5
142 91 22 38 50 74 61 80 11 6 17 15 14 21 -4 5 10 39 30 74 25 45 42 65 55
65 26 0 25 -14 -2 -33 -23 -16 -23 -16 -2 -16 41 -1 73 60 38 73 -24 9 -36 7
-77 -15z"/>
<path d="M749 271 c-49 -95 -68 -122 -92 -132 -57 -24 -83 20 -47 79 19 32 47
45 37 18 -8 -20 18 -39 42 -31 25 7 37 41 21 59 -32 40 -116 20 -150 -36 -23
-39 -26 -100 -5 -118 15 -12 64 -10 98 5 13 6 16 4 11 -10 -6 -14 -1 -16 27
-13 30 3 37 9 59 54 38 78 59 104 80 104 26 0 25 -6 -5 -59 -44 -76 -27 -106
45 -78 34 13 41 13 51 1 28 -34 70 -14 172 85 31 30 57 52 57 48 0 -4 -16 -39
-35 -77 l-35 -70 35 0 c30 0 37 5 45 27 17 46 52 113 66 124 10 8 19 4 36 -16
26 -29 53 -27 63 6 13 41 -46 65 -95 39 -13 -7 -19 -6 -24 5 -9 24 -21 18 -94
-49 -84 -77 -117 -100 -132 -91 -19 12 -10 22 30 34 62 18 90 78 49 104 -40
25 -120 -30 -143 -98 -8 -22 -21 -41 -30 -43 -21 -5 -20 11 4 58 11 22 20 49
20 61 0 20 -4 21 -45 17 -25 -3 -45 -4 -45 -1 0 2 11 26 25 53 14 27 25 52 25
55 0 3 -13 5 -29 5 -28 0 -34 -8 -92 -119z m299 -23 c-6 -18 -57 -53 -65 -44
-5 4 5 19 20 32 30 26 51 31 45 12z"/>
<path d="M340 355 c-11 -13 -11 -21 -2 -35 9 -15 7 -20 -18 -30 -33 -14 -78
-58 -47 -47 24 9 22 -5 -13 -73 -16 -33 -30 -62 -30 -65 0 -4 15 -5 33 -3 29
3 36 10 74 83 24 44 42 87 40 96 -1 9 4 24 12 33 11 13 12 22 4 34 -14 23 -37
26 -53 7z"/>
<path d="M1340 359 c0 -5 5 -7 10 -4 6 3 10 8 10 11 0 2 -4 4 -10 4 -5 0 -10
-5 -10 -11z"/>
<path d="M440 289 c-52 -21 -54 -66 -4 -107 57 -48 16 -73 -51 -32 -32 20 -32
20 -49 1 -17 -19 -17 -20 9 -37 14 -9 47 -19 73 -22 38 -3 53 0 75 18 37 29
35 61 -8 101 -19 19 -35 37 -35 41 0 12 38 10 61 -3 20 -10 49 2 49 21 0 6
-80 32 -92 29 -2 0 -14 -5 -28 -10z"/>
<path d="M240 35 c0 -14 5 -25 10 -25 6 0 10 11 10 25 0 14 -4 25 -10 25 -5 0
-10 -11 -10 -25z"/>
<path d="M280 36 c0 -31 6 -34 13 -6 3 11 1 23 -4 26 -5 3 -9 -6 -9 -20z"/>
<path d="M392 35 c0 -17 2 -22 5 -12 2 9 2 23 0 30 -3 6 -5 -1 -5 -18z"/>
<path d="M600 50 c0 -5 9 -14 20 -20 11 -6 20 -7 20 -3 0 5 -9 14 -20 21 -11
7 -20 8 -20 2z"/>
<path d="M697 53 c-3 -5 -1 -17 4 -28 7 -17 8 -17 8 8 1 27 -4 34 -12 20z"/>
<path d="M822 35 c0 -17 2 -22 5 -12 2 9 2 23 0 30 -3 6 -5 -1 -5 -18z"/>
<path d="M870 55 c0 -5 5 -17 10 -25 5 -8 10 -10 10 -5 0 6 -5 17 -10 25 -5 8
-10 11 -10 5z"/>
<path d="M900 53 c0 -4 5 -15 10 -23 8 -13 10 -13 10 2 0 9 -4 20 -10 23 -5 3
-10 3 -10 -2z"/>
<path d="M992 35 c0 -17 2 -22 5 -12 2 9 2 23 0 30 -3 6 -5 -1 -5 -18z"/>
<path d="M1010 39 c0 -16 6 -26 15 -26 19 0 18 7 0 31 -14 19 -15 19 -15 -5z"/>
<path d="M442 30 c0 -14 2 -19 5 -12 2 6 2 18 0 25 -3 6 -5 1 -5 -13z"/>
<path d="M462 30 c0 -14 2 -19 5 -12 2 6 2 18 0 25 -3 6 -5 1 -5 -13z"/>
<path d="M487 29 c4 -13 8 -18 11 -10 2 7 -1 18 -6 23 -8 8 -9 4 -5 -13z"/>
<path d="M552 30 c0 -14 2 -19 5 -12 2 6 2 18 0 25 -3 6 -5 1 -5 -13z"/>
<path d="M652 30 c0 -14 2 -19 5 -12 2 6 2 18 0 25 -3 6 -5 1 -5 -13z"/>
<path d="M1082 30 c0 -14 2 -19 5 -12 2 6 2 18 0 25 -3 6 -5 1 -5 -13z"/>
<path d="M1102 30 c0 -14 2 -19 5 -12 2 6 2 18 0 25 -3 6 -5 1 -5 -13z"/>
<path d="M311 24 c0 -11 3 -14 6 -6 3 7 2 16 -1 19 -3 4 -6 -2 -5 -13z"/>
<path d="M330 25 c0 -8 4 -15 10 -15 5 0 7 7 4 15 -4 8 -8 15 -10 15 -2 0 -4
-7 -4 -15z"/>
<path d="M511 24 c0 -11 3 -14 6 -6 3 7 2 16 -1 19 -3 4 -6 -2 -5 -13z"/>
<path d="M721 24 c0 -11 3 -14 6 -6 3 7 2 16 -1 19 -3 4 -6 -2 -5 -13z"/>
<path d="M961 24 c0 -11 3 -14 6 -6 3 7 2 16 -1 19 -3 4 -6 -2 -5 -13z"/>
<path d="M1050 30 c0 -5 5 -10 10 -10 6 0 10 5 10 10 0 6 -4 10 -10 10 -5 0
-10 -4 -10 -10z"/>
<path d="M1120 16 c0 -2 9 -6 20 -9 11 -3 18 -1 14 4 -5 9 -34 13 -34 5z"/>
</g>
</svg>
